# Blender v2.74 (sub 0) OBJ File: ''
# www.blender.org
mtllib miror.mtl
o Plane.002
v -8.000000 -1.000001 8.000000
v 8.000000 -1.000001 8.000000
v 8.000000 -0.999999 -8.000000
v -8.000000 -0.999999 -8.000000
vn 0.000000 1.000000 0.000000
usemtl Material.003
s 1
f 1//1 2//1 3//1 4//1
o Cone
v -0.363548 -0.950000 -0.877686
v 0.000000 0.950000 0.000000
v -0.185334 -0.950000 -0.931747
v 0.000000 -0.950000 -0.950000
v 0.185335 -0.950000 -0.931747
v -0.527792 -0.950000 -0.789897
v -0.671751 -0.950000 -0.671753
v -0.789895 -0.950000 -0.527794
v -0.877686 -0.950000 -0.363550
v -0.931747 -0.950000 -0.185338
v -0.950000 -0.950000 -0.000000
v -0.931747 -0.950000 0.185335
v -0.877686 -0.950000 0.363548
v -0.789896 -0.950000 0.527791
v -0.671753 -0.950000 0.671750
v -0.527792 -0.950000 0.789896
v -0.363550 -0.950000 0.877686
v -0.185335 -0.950000 0.931747
v 0.000000 -0.950000 0.950000
v 0.185335 -0.950000 0.931747
v 0.363550 -0.950000 0.877686
v 0.527792 -0.950000 0.789896
v 0.671751 -0.950000 0.671750
v 0.789896 -0.950000 0.527791
v 0.877686 -0.950000 0.363550
v 0.931747 -0.950000 0.185335
v 0.950000 -0.950000 -0.000000
v 0.931747 -0.950000 -0.185336
v 0.877686 -0.950000 -0.363550
v 0.789896 -0.950000 -0.527792
v 0.671751 -0.950000 -0.671751
v 0.527792 -0.950000 -0.789897
v 0.363550 -0.950000 -0.877686
vn -0.259900 0.445500 -0.856700
vn 0.087800 0.445500 -0.891000
vn -0.422000 0.445500 -0.789600
vn -0.568000 0.445500 -0.692100
vn -0.692100 0.445500 -0.568000
vn -0.789600 0.445500 -0.422000
vn -0.856700 0.445500 -0.259900
vn -0.891000 0.445500 -0.087700
vn -0.891000 0.445500 0.087800
vn -0.856700 0.445500 0.259900
vn -0.789600 0.445500 0.422000
vn -0.692100 0.445500 0.568000
vn -0.568000 0.445500 0.692100
vn -0.422000 0.445500 0.789600
vn -0.259900 0.445500 0.856700
vn -0.087800 0.445500 0.891000
vn 0.087800 0.445500 0.891000
vn 0.259900 0.445500 0.856700
vn 0.422000 0.445500 0.789600
vn 0.568000 0.445500 0.692100
vn 0.692100 0.445500 0.568000
vn 0.789600 0.445500 0.422000
vn 0.856700 0.445500 0.259900
vn 0.891000 0.445500 0.087800
vn 0.891000 0.445500 -0.087800
vn 0.856700 0.445500 -0.259900
vn 0.789600 0.445500 -0.422000
vn 0.692100 0.445500 -0.568000
vn 0.568000 0.445500 -0.692100
vn 0.422000 0.445500 -0.789600
vn -0.087800 0.445500 -0.891000
vn 0.259900 0.445500 -0.856700
vn 0.000000 -1.000000 -0.000000
usemtl Material.002
s 1
f 5//2 6//2 7//2
f 8//3 6//3 9//3
f 10//4 6//4 5//4
f 11//5 6//5 10//5
f 12//6 6//6 11//6
f 13//7 6//7 12//7
f 14//8 6//8 13//8
f 15//9 6//9 14//9
f 16//10 6//10 15//10
f 17//11 6//11 16//11
f 18//12 6//12 17//12
f 19//13 6//13 18//13
f 20//14 6//14 19//14
f 21//15 6//15 20//15
f 22//16 6//16 21//16
f 23//17 6//17 22//17
f 24//18 6//18 23//18
f 25//19 6//19 24//19
f 26//20 6//20 25//20
f 27//21 6//21 26//21
f 28//22 6//22 27//22
f 29//23 6//23 28//23
f 30//24 6//24 29//24
f 31//25 6//25 30//25
f 32//26 6//26 31//26
f 33//27 6//27 32//27
f 34//28 6//28 33//28
f 35//29 6//29 34//29
f 36//30 6//30 35//30
f 37//31 6//31 36//31
f 7//32 6//32 8//32
f 9//33 6//33 37//33
f 8//34 9//34 37//34 36//34 35//34 34//34 33//34 32//34 31//34 30//34 29//34 28//34 27//34 26//34 25//34 24//34 23//34 22//34 21//34 20//34 19//34 18//34 17//34 16//34 15//34 14//34 13//34 12//34 11//34 10//34 5//34 7//34
o Plane.001
v -1.000000 -1.000000 1.000000
v 1.000000 -1.000000 1.000000
v 1.000000 1.000000 1.000000
v -1.000000 1.000000 1.000000
vn 0.000000 -0.000000 1.000000
usemtl Material.001
s 1
f 38//35 39//35 40//35 41//35
o Plane
v -1.000000 -1.000000 -1.000000
v 1.000000 -1.000000 -1.000000
v 1.000000 1.000000 -1.000000
v -1.000000 1.000000 -1.000000
vn 0.000000 -0.000000 1.000000
usemtl Material.001
s 1
f 42//36 43//36 44//36 45//36
